<svg width="108" height="30" viewBox="0 0 108 30" fill="none" xmlns="http://www.w3.org/2000/svg">
<g clip-path="url(#clip0_2921_7979)">
<path d="M16.3846 25.6629C10.1063 25.6629 5 20.8849 5 15.014C5 12.2766 6.11149 9.67497 8.12879 7.6878L8.16509 7.65223L13.65 16.4999C14.2135 17.4086 15.2628 17.9745 16.3881 17.9745C16.9412 17.9745 17.4892 17.8371 17.9715 17.5751C19.4788 16.757 19.9939 14.9428 19.121 13.5313C18.5575 12.6226 17.5082 12.0567 16.3829 12.0567C15.8297 12.0567 15.2818 12.1941 14.7995 12.456C14.4797 12.6307 14.1927 12.857 13.9507 13.1319L13.9144 13.1723L9.71045 6.39105L9.73985 6.37165C11.6845 5.06035 13.9836 4.3667 16.3846 4.3667C22.6612 4.3667 27.7676 9.14301 27.7676 15.014C27.7676 20.8849 22.6612 25.6629 16.3846 25.6629ZM8.04235 12.0114C7.64477 12.9718 7.44426 13.9808 7.44426 15.014C7.44426 19.6253 11.4546 23.3765 16.3846 23.3765C21.3146 23.3765 25.3232 19.6253 25.3232 15.014C25.3232 10.4026 21.3129 6.65299 16.3846 6.65299C15.242 6.65299 14.1271 6.8551 13.0674 7.25125L14.7684 9.99349C15.2904 9.84637 15.8332 9.77036 16.3812 9.77036C18.3742 9.77036 20.2342 10.7712 21.2334 12.3816C22.7839 14.8814 21.8712 18.0974 19.1953 19.5494C18.3414 20.0118 17.3699 20.2576 16.3881 20.2576C14.3933 20.2576 12.5333 19.2567 11.5341 17.6447L8.04235 12.0114Z" fill="white"/>
<path d="M97.5951 21.4023C94.6149 21.4023 92.1914 19.1969 92.1914 16.4853C92.1914 13.7738 94.6167 11.5684 97.5951 11.5684C100.573 11.5684 102.999 13.7738 102.999 16.4853C102.999 19.1969 100.573 21.4023 97.5951 21.4023ZM97.5951 13.8045C96.0324 13.8045 94.7619 15.0075 94.7619 16.4853C94.7619 17.9632 96.0324 19.1662 97.5951 19.1662C99.1576 19.1662 100.428 17.9632 100.428 16.4853C100.428 15.0075 99.1576 13.8045 97.5951 13.8045Z" fill="white"/>
<path d="M56.4898 21.4025C53.2954 21.4025 50.8857 19.2892 50.8857 16.4855C50.8857 13.6818 53.3109 11.5669 56.291 11.5669C59.2712 11.5669 61.6948 13.774 61.6948 16.4855C61.6948 16.7587 61.6704 17.0256 61.6256 17.281L61.6203 17.3117H53.5962C53.9886 18.4743 55.0672 19.1663 56.4915 19.1663C57.3006 19.1663 58.0715 18.8381 58.6091 18.2641L58.6264 18.2463L61.0966 19.0596L61.0707 19.0984C60.075 20.5407 58.3637 21.4025 56.4933 21.4025H56.4898ZM58.9686 15.6108C58.5762 14.529 57.5062 13.8047 56.2893 13.8047C55.0723 13.8047 54.0023 14.529 53.6099 15.6108H58.967H58.9686Z" fill="white"/>
<path d="M37.8493 21.4022C34.7999 21.4022 32.3193 19.1951 32.3193 16.4836V8.62549H34.8605V12.6645C35.7248 11.9466 36.7981 11.5682 37.9667 11.5682C40.7965 11.5682 43.0972 13.7737 43.0972 16.4868C43.0972 19.2 40.7428 21.4038 37.8493 21.4038V21.4022ZM37.6937 13.8044C36.1345 13.8044 34.8622 15.0057 34.8605 16.4836C34.8605 17.9647 36.1309 19.166 37.6937 19.166C39.2564 19.166 40.5268 17.9631 40.5268 16.4852C40.5268 15.0074 39.2564 13.8044 37.6937 13.8044Z" fill="white"/>
<path d="M85.7985 21.4022C82.7491 21.4022 80.2686 19.1951 80.2686 16.4836V8.62549H82.8097V12.6645C83.6758 11.9466 84.7476 11.5682 85.9161 11.5682C88.7458 11.5682 91.0466 13.7737 91.0466 16.4868C91.0466 19.2 88.6922 21.4038 85.7985 21.4038V21.4022ZM85.6429 13.8044C84.0837 13.8044 82.8115 15.0057 82.8097 16.4836C82.8097 17.9647 84.0802 19.166 85.6429 19.166C87.2056 19.166 88.4761 17.9631 88.4761 16.4852C88.4761 15.0074 87.2056 13.8044 85.6429 13.8044Z" fill="white"/>
<path d="M44.5164 21.2194V14.9119C44.5164 12.9635 45.8249 11.7524 47.9288 11.7524H50.385V14.0355H48.6236C47.8112 14.0355 47.0609 14.1956 47.0609 15.3549V21.2194H44.5146H44.5164Z" fill="white"/>
<path d="M76.281 21.2194V16.2685C76.281 14.5869 75.173 13.9903 74.2257 13.9903C73.8782 13.9903 72.1426 14.097 72.1426 16.1973V21.2194H69.6121V16.1973C69.6121 14.097 67.8765 13.9903 67.529 13.9903C66.5801 13.9903 65.4737 14.5869 65.4737 16.2685V21.2194H63V15.612C63 13.0913 65.237 11.5859 67.3994 11.5859C68.7616 11.5859 70.058 12.1519 70.879 13.1026C71.6985 12.1519 72.9966 11.5859 74.3588 11.5859C76.5213 11.5859 78.7598 13.0929 78.7598 15.612V21.2194H76.2845H76.281Z" fill="white"/>
</g>
<defs>
<clipPath id="clip0_2921_7979">
<rect width="98" height="22" fill="white" transform="translate(5 4)"/>
</clipPath>
</defs>
</svg>
