<svg xmlns="http://www.w3.org/2000/svg" height="800" width="1200" viewBox="-561 -207.75 4862 1246.5"><path fill="#27b578" d="M737 799C525 690 377 448 377 169c0-58 6-115 19-169h341z"/><path d="M737 825c-39-8-79-21-115-38-147-67-265-198-328-362-29-76-46-160-48-247-3-56-2-114 0-178H0v831h737zm3003-54V408c0-107-40-147-139-147h-306V77h-110v694h109V402c0-26 13-41 38-41h261c25 0 38 14 38 40v370zm-629 0V671h-363c-38 0-57-21-57-62V423c0-42 19-62 58-62h359V261h-376c-102 0-149 51-149 162v189c0 109 46 158 149 158h380zm-1489 0V669h-464c-38 0-58-21-58-62V242c0-43 19-62 58-62h431V77h-427c-116 0-170 56-170 184v325c0 126 53 185 171 185zm887-200V409c0-107-37-148-137-148h-361c-100 0-137 41-137 149v214c0 107 37 148 137 148h425V672h-416c-24 0-38-14-38-41v-59h526zm-110-100h-417v-70c0-26 13-41 37-41h342c24 0 37 12 37 41v69zm-609-210h-108v357c-2 108 23 148 92 152 2 0 8 0 16 1zm-52-182c34 0 61 30 61 66s-27 66-61 66-61-30-61-66 27-66 61-66z" fill="#2c3765"/></svg>